<svg width="149" height="26" viewBox="0 0 149 26" fill="none" xmlns="http://www.w3.org/2000/svg">
<path d="M62.5362 22.847C63.5267 22.8582 64.5072 22.6481 65.4062 22.232L65.1282 25.351C64.1104 25.7746 63.0196 25.9951 61.9172 26C58.4612 26 56.2992 24.272 56.2992 20.753V6.15301L60.1552 5.63V9.83001H65.4322L65.1542 12.7H60.1542V20.287C60.1542 22.23 61.2672 22.849 62.5312 22.849L62.5362 22.847Z" fill="white"/>
<path d="M0 25.351V1.76199H12.871V5.53099H4.071V11.531H11.657V15.336H4.067V21.582H12.867V25.356L0 25.351Z" fill="white"/>
<path d="M25.3233 25.351L22.2173 19.876H21.9943L18.8883 25.351H14.8883L19.7883 17.057L15.0103 9.01999H19.2373L22.1833 14.208H22.3773L25.3233 9.01999H29.3233L24.6153 17.02L29.5153 25.344H25.3233V25.351Z" fill="white"/>
<path d="M40.1094 25.477C39.3859 25.5586 38.6585 25.6006 37.9304 25.603C36.5161 25.7044 35.1029 25.3916 33.8634 24.703C32.9764 24.0901 32.3658 23.153 32.1634 22.094C31.8662 20.4736 31.7379 18.8268 31.7804 17.18C31.734 15.5354 31.8796 13.8909 32.2144 12.28C32.4335 11.2117 33.0514 10.267 33.9424 9.63801C35.1371 8.96953 36.5006 8.6634 37.8664 8.75701C38.6098 8.75792 39.3526 8.79999 40.0914 8.88301C40.715 8.94196 41.3316 9.05914 41.9334 9.23301V12.242C40.9292 12.0624 39.9105 11.9764 38.8904 11.985C38.1509 11.9352 37.41 12.0609 36.7284 12.352C36.4894 12.5084 36.288 12.7157 36.1386 12.9592C35.9892 13.2026 35.8956 13.4761 35.8644 13.76C35.6962 14.8881 35.6273 16.0288 35.6584 17.169C35.6267 18.3211 35.7014 19.4736 35.8814 20.612C35.9145 20.8951 36.0109 21.1671 36.1634 21.4079C36.3159 21.6487 36.5206 21.8521 36.7624 22.003C37.447 22.2828 38.1865 22.4025 38.9244 22.353C39.9738 22.3567 41.022 22.2822 42.0604 22.13V25.105C41.4204 25.2741 40.768 25.3925 40.1094 25.459V25.477Z" fill="white"/>
<path d="M46.0466 3.89V0H49.9826V3.89H46.0466ZM46.0806 25.351V7.95H49.9536V25.35L46.0806 25.351Z" fill="white"/>
<path d="M79.4566 18.435H70.5216C70.4866 19.3307 70.556 20.2274 70.7286 21.107C70.7917 21.3484 70.9159 21.5694 71.0893 21.7488C71.2627 21.9282 71.4795 22.0598 71.7186 22.131C72.6133 22.3558 73.5361 22.4481 74.4576 22.405C75.9558 22.3995 77.4526 22.3137 78.9416 22.148V25.123C78.1406 25.2999 77.3278 25.4182 76.5096 25.477C75.5096 25.561 74.5326 25.603 73.5976 25.603C72.012 25.7051 70.4251 25.4245 68.9706 24.785C68.4975 24.5249 68.0847 24.1677 67.7593 23.7369C67.4339 23.306 67.2033 22.8112 67.0826 22.285C66.7425 20.6161 66.5968 18.9134 66.6486 17.211C66.5951 15.5294 66.7407 13.8473 67.0826 12.2C67.2007 11.6684 67.4247 11.1661 67.7412 10.723C68.0576 10.2799 68.4601 9.90513 68.9246 9.62099C70.2855 8.95214 71.7987 8.65411 73.3116 8.75699C74.7644 8.64511 76.2201 8.9321 77.5216 9.58699C77.9504 9.86403 78.316 10.2282 78.5947 10.6558C78.8735 11.0834 79.0591 11.5649 79.1396 12.069C79.3937 13.7689 79.5008 15.4876 79.4596 17.206V18.424L79.4566 18.435ZM71.4566 12.223C71.2655 12.3348 71.1017 12.4878 70.977 12.6708C70.8523 12.8538 70.7698 13.0622 70.7356 13.281C70.5894 14.1159 70.5205 14.9625 70.5296 15.81H75.8106C75.8375 14.9509 75.768 14.0916 75.6036 13.248C75.5663 13.0282 75.4809 12.8194 75.3535 12.6365C75.2261 12.4537 75.0598 12.3012 74.8666 12.19C74.3513 11.9917 73.8 11.9041 73.2486 11.933C72.6377 11.8944 72.0259 11.9924 71.4576 12.22L71.4566 12.223Z" fill="white"/>
<path d="M94.7917 25.455C93.9738 25.5542 93.1507 25.6053 92.3267 25.608C90.5329 25.7333 88.738 25.3785 87.1267 24.58C86.5403 24.1788 86.0418 23.6622 85.6618 23.0618C85.2818 22.4614 85.0283 21.7897 84.9167 21.088C84.4724 18.6035 84.2844 16.0799 84.3557 13.557C84.2836 11.04 84.4716 8.52234 84.9167 6.044C85.0337 5.34209 85.291 4.67098 85.6733 4.0708C86.0556 3.47063 86.5551 2.95372 87.1417 2.551C88.7463 1.74447 90.538 1.38325 92.3297 1.505C93.1642 1.50729 93.9977 1.56441 94.8247 1.676C95.5174 1.75673 96.2023 1.89385 96.8727 2.086V5.579C95.6743 5.40712 94.467 5.30495 93.2567 5.273C92.1239 5.19511 90.9877 5.36576 89.9277 5.773C89.5799 6.00433 89.2905 6.31321 89.0823 6.67535C88.874 7.03749 88.7527 7.44301 88.7277 7.86C88.4993 9.75092 88.4077 11.6559 88.4537 13.56C88.4057 15.4641 88.4972 17.3692 88.7277 19.26C88.7519 19.6772 88.8729 20.083 89.0812 20.4452C89.2895 20.8075 89.5794 21.1162 89.9277 21.347C90.9871 21.7565 92.1238 21.9272 93.2567 21.847C94.5006 21.8461 95.7424 21.7437 96.9697 21.541V25.07C96.2545 25.253 95.5264 25.3817 94.7917 25.455Z" fill="white"/>
<path d="M103.063 24.887C102.61 24.6504 102.216 24.3145 101.911 23.9043C101.605 23.494 101.397 23.0201 101.301 22.518C100.99 20.7589 100.862 18.9725 100.917 17.187C100.862 15.3916 100.99 13.5952 101.301 11.826C101.396 11.3257 101.604 10.8537 101.91 10.4461C102.215 10.0384 102.609 9.70597 103.063 9.47399C104.499 8.91559 106.039 8.67672 107.577 8.77399C109.103 8.67558 110.633 8.91457 112.057 9.47399C112.512 9.70798 112.908 10.0432 113.213 10.4538C113.518 10.8645 113.726 11.3397 113.819 11.843C114.129 13.6079 114.257 15.3999 114.203 17.191C114.258 18.9765 114.129 20.7629 113.819 22.522C113.723 23.0241 113.514 23.498 113.209 23.9083C112.904 24.3185 112.51 24.6544 112.057 24.891C110.636 25.4628 109.105 25.7092 107.577 25.612C106.037 25.7085 104.496 25.4622 103.063 24.891V24.887ZM109.532 22.055C109.734 21.907 109.9 21.7146 110.017 21.4926C110.134 21.2706 110.199 21.0248 110.206 20.774C110.313 19.5818 110.355 18.3847 110.332 17.188C110.355 15.9866 110.313 14.7848 110.206 13.588C110.199 13.3413 110.136 13.0995 110.023 12.8805C109.909 12.6616 109.747 12.4713 109.549 12.324C108.929 12.059 108.253 11.9492 107.581 12.004C106.903 11.9506 106.222 12.0603 105.596 12.324C105.395 12.4694 105.229 12.6589 105.113 12.878C104.996 13.097 104.931 13.3399 104.922 13.588C104.814 14.7848 104.772 15.9866 104.796 17.188C104.771 18.3837 104.812 19.5798 104.918 20.771C104.923 21.0221 104.987 21.2686 105.104 21.4909C105.221 21.7132 105.388 21.9053 105.592 22.052C106.218 22.3157 106.899 22.4254 107.577 22.372C108.244 22.4264 108.913 22.3165 109.528 22.052L109.532 22.055Z" fill="white"/>
<path d="M121.617 24.823C120.807 24.1238 120.264 23.166 120.079 22.112C119.71 20.3232 119.549 18.4978 119.599 16.672C119.552 14.8603 119.707 13.049 120.063 11.272C120.244 10.211 120.771 9.2399 121.563 8.511C122.405 7.9088 123.429 7.61405 124.463 7.676C125.343 7.64781 126.218 7.81659 127.025 8.17C127.738 8.53031 128.303 9.12696 128.625 9.858H128.848V0H132.692V25.335H129.106L128.98 23.185H128.757C128.138 24.801 126.74 25.6073 124.564 25.604C123.523 25.6663 122.49 25.3906 121.618 24.818L121.617 24.823ZM127.717 21.654C128.093 21.4191 128.372 21.0556 128.501 20.631C128.646 20.1243 128.738 19.6038 128.775 19.078C128.83 18.454 128.856 17.6417 128.855 16.641C128.855 15.707 128.838 14.967 128.809 14.406C128.789 13.9264 128.708 13.4514 128.569 12.992C128.476 12.4922 128.203 12.0437 127.802 11.731C127.318 11.4488 126.761 11.3176 126.202 11.354C125.571 11.3053 124.937 11.4164 124.36 11.677C124.154 11.8427 123.985 12.0498 123.865 12.285C123.744 12.5202 123.674 12.7781 123.66 13.042C123.513 14.2361 123.454 15.4393 123.483 16.642C123.455 17.855 123.514 19.0685 123.66 20.273C123.674 20.5369 123.744 20.7948 123.865 21.03C123.985 21.2652 124.154 21.4723 124.36 21.638C124.937 21.8986 125.571 22.0097 126.202 21.961C126.727 21.9899 127.25 21.8849 127.723 21.656L127.717 21.654Z" fill="white"/>
<path d="M148.989 18.435H140.054C140.019 19.3307 140.088 20.2274 140.261 21.107C140.324 21.3484 140.448 21.5695 140.622 21.7489C140.795 21.9283 141.012 22.0599 141.251 22.131C142.146 22.3558 143.069 22.4481 143.99 22.405C145.488 22.3995 146.985 22.3137 148.474 22.148V25.123C147.673 25.2999 146.86 25.4182 146.042 25.477C145.042 25.561 144.065 25.603 143.13 25.603C141.544 25.7051 139.958 25.4246 138.503 24.785C138.03 24.5249 137.617 24.1677 137.292 23.7369C136.966 23.306 136.736 22.8112 136.615 22.285C136.275 20.6161 136.129 18.9134 136.181 17.211C136.128 15.5294 136.273 13.8474 136.615 12.2C136.733 11.6684 136.957 11.1661 137.274 10.723C137.59 10.2799 137.993 9.90513 138.457 9.62099C139.818 8.95214 141.331 8.65411 142.844 8.75699C144.297 8.64511 145.753 8.9321 147.054 9.58699C147.483 9.86399 147.849 10.2281 148.127 10.6558C148.406 11.0834 148.592 11.5649 148.672 12.069C148.926 13.7689 149.033 15.4876 148.992 17.206V18.424L148.989 18.435ZM140.989 12.223C140.798 12.3348 140.634 12.4878 140.509 12.6708C140.385 12.8538 140.302 13.0622 140.268 13.281C140.122 14.1159 140.053 14.9625 140.062 15.81H145.343C145.37 14.9509 145.301 14.0916 145.136 13.248C145.099 13.0282 145.013 12.8194 144.886 12.6365C144.759 12.4537 144.592 12.3012 144.399 12.19C143.884 11.9916 143.332 11.9041 142.781 11.933C142.17 11.8944 141.558 11.9924 140.99 12.22L140.989 12.223Z" fill="white"/>
</svg>
